DBRep_DrawableShape

CASCADE Topology V1, (c) Matra-Datavision
Locations 13
1
              1               0               0               0 
              0               1               0 105.103448275862 
              0               0               1               0 
1
              1               0               0 86.7103448275871 
              0               1               0 -104.103448275862 
              0               0               1      1.1369e-13 
2  1 1 2 1 0
2  1 -1 0
1
              1               0               0               0 
              0               1               0               0 
              0               0               1               0 
1
             -1               0               0               0 
              0               0               1               0 
             -0               1               0 68.3172413793103 
2  5 1 6 1 0
2  6 -1 5 -1 0
2  1 -1 6 -1 5 -1 0
1
              1               0               0              -0 
              0               1               0              -1 
              0               0               1               0 
2  5 1 6 1 10 1 0
2  10 -1 6 -1 5 -1 0
2  1 -1 10 -1 6 -1 5 -1 0
Curve2ds 24
1 0 0 4.4e-16 -1 
1 38.187586206897421 -1.2688275862076425e-16 -9.000000000000002e-17 -1 
1 38.537931034482874 -8.1655172413767998e-17 4.4e-16 -1 
1 0 0 9.000000000000002e-17 -1 
1 2.8424871708787977e-14 -2.2679999999999995e-14 1 2.2e-16 
1 -19.268965517241412 -19.093793103448704 1 0 
1 2.8644871708787975e-14 -1.0000000000000226 1 2.2e-16 
1 -19.268965517241412 -19.093793103448704 1 0 
1 38.187586206897414 1.2688275862076595e-16 9.000000000000002e-17 -1 
1 0 0 -4.4e-16 -1 
1 1.4210854715202004e-14 -1.4120000000000002e-14 1 9.000000000000002e-17 
1 19.268965517241448 -19.093793103448704 0 1 
1 1.4300854715202006e-14 -1.0000000000000142 1 9.000000000000002e-17 
1 19.268965517241448 -19.093793103448704 0 1 
1 38.537931034482867 8.1655172413769564e-17 -4.4e-16 -1 
1 0 0 -9.000000000000002e-17 -1 
1 -7.105427357601005e-15 -1.0809999999999999e-14 1 -2.2e-16 
1 19.268965517241448 19.093793103448711 -1 0 
1 -7.3254273576010046e-15 -1.0000000000000109 1 -2.2e-16 
1 19.268965517241448 19.093793103448711 -1 0 
1 -7.1054273576010034e-15 -1.9370000000000004e-14 1 -9.000000000000002e-17 
1 -19.268965517241412 19.093793103448711 0 -1 
1 -7.1954273576010029e-15 -1.0000000000000193 1 -9.000000000000002e-17 
1 -19.268965517241412 19.093793103448711 0 -1 
Curves 12
1 -86.710344827587065 2.2680000000000001e-14 -1.1368999999999999e-13 -0 -1 2.2e-16 
1 -86.710344827587065 1.4120000000000001e-14 38.53793103448276 -0 -1 2.2e-16 
1 86.710344827587051 -68.317241379310417 0 0 1 0 
1 86.710344827587051 -68.317241379310417 0 0 1 0 
1 -48.52275862068965 1.081e-14 38.537931034482767 -0 -1 2.2e-16 
1 86.710344827587051 -29.779310344827557 0 -1 0 0 
1 86.710344827587051 -29.779310344827557 0 -1 0 0 
1 -48.522758620689643 1.937e-14 -9.9479999999999996e-14 -0 -1 2.2e-16 
1 48.522758620689636 -29.779310344827557 0 0 -1 0 
1 48.522758620689636 -29.779310344827557 0 0 -1 0 
1 48.522758620689636 -68.317241379310417 0 1 0 0 
1 48.522758620689636 -68.317241379310417 0 1 0 0 
Polygon3D 0
PolygonOnTriangulations 0
Surfaces 6
1 -86.710344827587065 2.2680000000000001e-14 -1.1368999999999999e-13 -1 -0 -8.9999999999999996e-17 -8.9999999999999996e-17 -2.2e-16 1 -1.9799999999999999e-32 1 2.2e-16 
1 -48.522758620689643 1.937e-14 -9.9479999999999996e-14 8.9999999999999996e-17 -2.2e-16 -1 -1 8.9999999999999996e-17 -9.000000000000002e-17 9.000000000000002e-17 1 -2.2e-16 
1 -86.710344827587065 1.4120000000000001e-14 38.53793103448276 -8.9999999999999996e-17 2.2e-16 1 1 -8.9999999999999996e-17 9.000000000000002e-17 9.000000000000002e-17 1 -2.2e-16 
1 -67.616551724138347 1.6750000000000001e-14 19.268965517241327 0 1 0 0 -0 1 1 0 -0 
1 -67.616551724138347 1.6750000000000001e-14 19.268965517241327 0 1 0 0 -0 1 1 0 -0 
1 -48.52275862068965 1.081e-14 38.537931034482767 1 0 8.9999999999999996e-17 8.9999999999999996e-17 2.2e-16 -1 -1.9799999999999999e-32 1 2.2e-16 
Triangulations 0

TShapes 34
Ve
1e-07
-86.7103448275871 105.103448275862 -1.14e-13
0 0

0101101
*
Ve
1e-07
-86.7103448275871 104.103448275862 -1.14e-13
0 0

0101101
*
Ed
 1e-07 1 1 0
1  1 0 0 1
2  1 1 0 0 1
2  2 2 0 0 1
0

0101000
+34 4 -33 4 *
Ve
1e-07
-86.7103448275871 105.103448275862 38.5379310344828
0 0

0101101
*
Ve
1e-07
-86.7103448275871 104.103448275862 38.5379310344828
0 0

0101101
*
Ed
 1e-07 1 1 0
1  2 0 0 1
2  3 1 0 0 1
2  4 3 0 0 1
0

0101000
+31 4 -30 4 *
Ed
 1e-07 1 1 0
1  3 0 0 38.5379310344829
2  5 1 8 0 38.5379310344829
2  6 4 8 0 38.5379310344829
0

0101000
+34 9 -31 9 *
Ed
 1e-07 1 1 0
1  4 0 0 38.5379310344829
2  7 1 12 0 38.5379310344829
2  8 5 8 0 38.5379310344829
0

0101000
+33 13 -30 13 *
Wi

0101100
+32 0 -29 0 -28 7 +27 11 *
Fa
0  1e-07 1 0

0101000
+26 0 *
Ve
0.00015123790266
-48.5227586206897 105.103448275862 38.5379310344828
0 0

0101101
*
Ve
0.00015123790266
-48.5227586206897 104.103448275862 38.5379310344828
0 0

0101101
*
Ed
 1e-07 1 1 0
1  5 0 0 1
2  9 3 0 0 1
2  10 6 0 0 1
0

0101000
+24 4 -23 4 *
Ed
 1e-07 1 1 0
1  6 0 0 38.1875862068974
2  11 3 8 0 38.1875862068974
2  12 4 8 0 38.1875862068974
0

0101000
+31 9 -24 9 *
Ed
 1e-07 1 1 0
1  7 0 0 38.1875862068974
2  13 3 12 0 38.1875862068974
2  14 5 8 0 38.1875862068974
0

0101000
+30 13 -23 13 *
Wi

0101100
+29 0 -22 0 -21 7 +20 11 *
Fa
0  1e-07 3 0

0111000
+19 0 *
Ve
0.000301066889179
-48.5227586206896 105.103448275862 -9.9e-14
0 0

0101101
*
Ve
0.000301066889179
-48.5227586206896 104.103448275862 -9.9e-14
0 0

0101101
*
Ed
 1e-07 1 1 0
1  8 0 0 1
2  15 6 0 0 1
2  16 2 0 0 1
0

0101000
+17 4 -16 4 *
Ed
 1e-07 1 1 0
1  9 0 0 38.5379310344829
2  17 6 8 0 38.5379310344829
2  18 4 8 0 38.5379310344829
0

0101000
+24 9 -17 9 *
Ed
 1e-07 1 1 0
1  10 0 0 38.5379310344829
2  19 6 12 0 38.5379310344829
2  20 5 8 0 38.5379310344829
0

0101000
+23 13 -16 13 *
Wi

0101100
+22 0 -15 0 -14 7 +13 11 *
Fa
0  1e-07 6 0

0111000
+12 0 *
Ed
 1e-07 1 1 0
1  11 0 0 38.1875862068974
2  21 2 8 0 38.1875862068974
2  22 4 8 0 38.1875862068974
0

0101000
+17 9 -34 9 *
Ed
 1e-07 1 1 0
1  12 0 0 38.1875862068974
2  23 2 12 0 38.1875862068974
2  24 5 8 0 38.1875862068974
0

0101000
+16 13 -33 13 *
Wi

0101100
+15 0 -32 0 -10 7 +9 11 *
Fa
0  1e-07 2 0

0111000
+8 0 *
Wi

0101100
+28 0 +21 0 +14 0 +10 0 *
Fa
0  1e-07 4 0

0111000
+6 7 *
Wi

0101100
+27 0 +20 0 +13 0 +9 0 *
Fa
0  1e-07 5 0

0111000
+4 7 *
Sh

0101100
+25 0 +18 0 +11 0 +7 0 +5 0 -3 10 *
So

1100000
+2 0 *

+1 3 